G04 DipTrace 3.1.0.1*
G04 Нижняямаска.gbr*
%MOMM*%
G04 #@! TF.FileFunction,Soldermask,Bot*
G04 #@! TF.Part,Single*
%AMOUTLINE0*
4,1,20,
-0.5705,-1.1405,
-0.53627,-1.33567,
-0.43733,-1.50733,
-0.28567,-1.63483,
-0.09957,-1.70273,
0.09857,-1.70293,
0.28483,-1.6353,
0.4367,-1.5081,
0.53593,-1.3366,
0.5705,-1.1415,
0.5705,-0.0005,
0.53627,0.19467,
0.43733,0.36633,
0.28567,0.49383,
0.09957,0.56173,
-0.09857,0.56193,
-0.28483,0.4943,
-0.4367,0.3671,
-0.53593,0.1956,
-0.5705,0.0005,
-0.5705,-1.1405,
0*%
%AMOUTLINE1*
4,1,20,
0.5705,1.1405,
0.53627,1.33567,
0.43733,1.50733,
0.28567,1.63483,
0.09957,1.70273,
-0.09857,1.70293,
-0.28483,1.6353,
-0.4367,1.5081,
-0.53593,1.3366,
-0.5705,1.1415,
-0.5705,0.0005,
-0.53627,-0.19467,
-0.43733,-0.36633,
-0.28567,-0.49383,
-0.09957,-0.56173,
0.09857,-0.56193,
0.28483,-0.4943,
0.4367,-0.3671,
0.53593,-0.1956,
0.5705,-0.0005,
0.5705,1.1405,
0*%
%AMOUTLINE2*
4,1,20,
1.1405,-0.5705,
1.33567,-0.53627,
1.50733,-0.43733,
1.63483,-0.28567,
1.70273,-0.09957,
1.70293,0.09857,
1.6353,0.28483,
1.5081,0.4367,
1.3366,0.53593,
1.1415,0.5705,
0.0005,0.5705,
-0.19467,0.53627,
-0.36633,0.43733,
-0.49383,0.28567,
-0.56173,0.09957,
-0.56193,-0.09857,
-0.4943,-0.28483,
-0.3671,-0.4367,
-0.1956,-0.53593,
-0.0005,-0.5705,
1.1405,-0.5705,
0*%
%ADD25R,1.9X1.9*%
%ADD28C,1.7*%
%ADD29C,1.9*%
%ADD34C,1.7*%
%ADD36R,1.8X1.8*%
%ADD38C,2.0*%
%ADD49C,2.5*%
%ADD58C,3.0*%
%ADD64C,1.8*%
%ADD67R,2.35X3.45*%
%ADD69R,2.35X1.15*%
%ADD71R,1.3X0.8*%
%ADD73R,2.9X2.9*%
%ADD77C,2.4*%
%ADD79R,2.4X2.4*%
%ADD80R,2.0X2.0*%
%ADD83R,2.2X0.8*%
%ADD85C,2.1*%
%ADD86R,2.1X2.1*%
%ADD87R,0.8X0.8*%
%ADD89R,1.8X2.0*%
%ADD91R,1.7X1.5*%
%ADD93R,4.01X2.74*%
%ADD95R,2.0X1.8*%
%ADD97R,1.5X1.7*%
%ADD101OUTLINE0*%
%ADD102OUTLINE1*%
%ADD103OUTLINE2*%
%FSLAX35Y35*%
G04*
G71*
G90*
G75*
G01*
G04 BotMask*
%LPD*%
D97*
X1919750Y6553373D3*
X2109750D3*
D95*
X4191750Y8277373D3*
Y8557373D3*
D93*
X2612750Y8801373D3*
X2614023Y8069220D3*
X3295750Y8801373D3*
X3297023Y8069220D3*
X4169750Y6553373D3*
X4168477Y7285527D3*
D91*
X4589750Y7013373D3*
Y6823373D3*
D97*
X5731750Y1610373D3*
X5921750D3*
D91*
X4460750Y5670373D3*
Y5480373D3*
D89*
X5720750Y6245373D3*
X5440750D3*
D97*
X5369750Y2643373D3*
X5559750D3*
D89*
X5925750Y2343373D3*
X5645750D3*
D87*
X5409750Y7947380D3*
Y8167380D3*
X5169750Y7947380D3*
Y8167380D3*
D38*
X6149750Y10648373D3*
X2270000Y10413873D3*
X5797750Y1987373D3*
X1443750Y2006373D3*
D58*
X6302750Y8426373D3*
D89*
X6069750Y2963373D3*
X5789750D3*
X1679750Y1494373D3*
X1399750D3*
D95*
X1539750Y4553373D3*
Y4273373D3*
X2849750Y6693373D3*
Y6413373D3*
D89*
X1679750Y4813373D3*
X1399750D3*
D86*
X1629750Y9813373D3*
D85*
X1929750Y9488373D3*
D28*
X3250750Y9444373D3*
X3504750Y9441373D3*
X3753750Y9449373D3*
X4008750Y9446373D3*
D3*
X5024750Y1744373D3*
X5276750Y1743373D3*
X4770750Y1744373D3*
X4514750D3*
X4267750D3*
X4002750D3*
X3749750D3*
X3500750D3*
X2993750Y1742373D3*
X3247750Y1744373D3*
X2739750D3*
X2483750D3*
X2229750D3*
X1974750D3*
D83*
X2020750Y2257373D3*
Y2384373D3*
Y2511373D3*
Y2638373D3*
X2560750D3*
Y2511373D3*
Y2384373D3*
Y2257373D3*
D91*
X4899750Y2293373D3*
Y2103373D3*
X4508750Y2191373D3*
Y2001373D3*
X4266750Y2195373D3*
Y2005373D3*
X3485750Y2473373D3*
Y2283373D3*
X3206750Y2476373D3*
Y2286373D3*
X5139750Y2293373D3*
Y2103373D3*
D97*
X5749750Y4943373D3*
X5939750D3*
X5579750D3*
X5389750D3*
D89*
X2029750Y3702373D3*
X1749750D3*
D97*
X6047377Y7840773D3*
X5857377D3*
X5809277Y8793173D3*
X5619277D3*
X2079750Y4623373D3*
X1889750D3*
D95*
X1809750Y5923373D3*
Y6203373D3*
D97*
X1799750Y5383373D3*
X1609750D3*
X3856750Y7768373D3*
X3666750D3*
X1728750Y2428373D3*
X1538750D3*
X2208750Y2936373D3*
X2398750D3*
X2202750Y1984373D3*
X2392750D3*
D95*
X4019750Y2647373D3*
Y2367373D3*
D89*
X4369750Y2438373D3*
X4649750D3*
D91*
X5634670Y8158240D3*
Y7968240D3*
D89*
X5184497Y8396340D3*
X4904497D3*
D25*
X2508123Y10636123D3*
D29*
Y10186123D3*
X3158123D3*
Y10636123D3*
D25*
X2031877Y10191623D3*
D29*
Y10641623D3*
X1381877D3*
Y10191623D3*
D34*
X3619750Y10643373D3*
X3819750D3*
X4019750D3*
D80*
X3409750D3*
X4229750D3*
D79*
X5275750Y1484373D3*
D77*
X5022623Y1483373D3*
X4768500Y1485373D3*
X4514500D3*
X4261500Y1484497D3*
X4006500D3*
X3752623Y1484500D3*
X3499750Y1484123D3*
X3246250D3*
X2737750Y1484250D3*
X2990873Y1484373D3*
X2481873Y1484497D3*
X2228250Y1484747D3*
X1974373Y1484497D3*
X4011750Y9673123D3*
X3757750D3*
X3503750D3*
X3249750D3*
D101*
X4461750Y3221373D3*
X4261750D3*
X4061750D3*
X3861750D3*
X3661750D3*
X3461750D3*
X3261750D3*
X3061750D3*
D102*
X4461750Y4621373D3*
X4261750D3*
X4061750D3*
X3861750D3*
X3661750D3*
X3461750D3*
X3261750D3*
X3061750D3*
D103*
X4611750Y3621373D3*
Y4421373D3*
Y3421373D3*
Y4021373D3*
Y3821373D3*
Y4221373D3*
D73*
X4198750Y9108373D3*
Y7768373D3*
X1983750Y7758373D3*
Y8058373D3*
Y8813373D3*
Y9113373D3*
D34*
X4539750Y9293373D3*
X4793750D3*
X5047750D3*
X5301750D3*
X5555750D3*
X5809750D3*
D71*
X2231503Y6962393D3*
Y6867393D3*
Y6772393D3*
X1961503D3*
Y6962393D3*
D69*
X3169750Y6683373D3*
Y6913373D3*
Y7143373D3*
D67*
X3749750Y6913373D3*
D34*
X5629750Y5173373D3*
Y5427373D3*
Y5665497D3*
Y5919497D3*
D49*
X2940973Y5548473D3*
D34*
X5799750Y3323373D3*
Y3577373D3*
Y3831373D3*
Y4085373D3*
Y4339373D3*
Y4593373D3*
D36*
X5719750Y6763373D3*
D64*
Y7013373D3*
Y7263373D3*
D91*
X2599750Y6733373D3*
Y6923373D3*
M02*
