G04 DipTrace 3.1.0.1*
G04 Нижний.gbr*
%MOMM*%
G04 #@! TF.FileFunction,Copper,L2,Bot*
G04 #@! TF.Part,Single*
%AMOUTLINE0*
4,1,20,
-0.5705,-1.1405,
-0.53627,-1.33567,
-0.43733,-1.50733,
-0.28567,-1.63483,
-0.09957,-1.70273,
0.09857,-1.70293,
0.28483,-1.6353,
0.4367,-1.5081,
0.53593,-1.3366,
0.5705,-1.1415,
0.5705,-0.0005,
0.53627,0.19467,
0.43733,0.36633,
0.28567,0.49383,
0.09957,0.56173,
-0.09857,0.56193,
-0.28483,0.4943,
-0.4367,0.3671,
-0.53593,0.1956,
-0.5705,0.0005,
-0.5705,-1.1405,
0*%
%AMOUTLINE1*
4,1,20,
0.5705,1.1405,
0.53627,1.33567,
0.43733,1.50733,
0.28567,1.63483,
0.09957,1.70273,
-0.09857,1.70293,
-0.28483,1.6353,
-0.4367,1.5081,
-0.53593,1.3366,
-0.5705,1.1415,
-0.5705,0.0005,
-0.53627,-0.19467,
-0.43733,-0.36633,
-0.28567,-0.49383,
-0.09957,-0.56173,
0.09857,-0.56193,
0.28483,-0.4943,
0.4367,-0.3671,
0.53593,-0.1956,
0.5705,-0.0005,
0.5705,1.1405,
0*%
%AMOUTLINE2*
4,1,20,
1.1405,-0.5705,
1.33567,-0.53627,
1.50733,-0.43733,
1.63483,-0.28567,
1.70273,-0.09957,
1.70293,0.09857,
1.6353,0.28483,
1.5081,0.4367,
1.3366,0.53593,
1.1415,0.5705,
0.0005,0.5705,
-0.19467,0.53627,
-0.36633,0.43733,
-0.49383,0.28567,
-0.56173,0.09957,
-0.56193,-0.09857,
-0.4943,-0.28483,
-0.3671,-0.4367,
-0.1956,-0.53593,
-0.0005,-0.5705,
1.1405,-0.5705,
0*%
G04 #@! TA.AperFunction,Conductor*
%ADD13C,0.45*%
%ADD14C,0.8*%
%ADD15C,0.6*%
%ADD18R,1.3X1.5*%
%ADD19R,1.8X1.6*%
%ADD20R,3.81X2.54*%
%ADD21R,1.5X1.3*%
%ADD22R,1.6X1.8*%
%ADD24R,0.6X0.6*%
G04 #@! TA.AperFunction,ComponentPad*
%ADD25R,1.9X1.9*%
%ADD29C,1.9*%
%ADD30C,1.5*%
%ADD32R,2.0X0.6*%
G04 #@! TA.AperFunction,ComponentPad*
%ADD33R,1.7X1.7*%
%ADD34C,1.7*%
%ADD35C,1.5*%
%ADD36R,1.8X1.8*%
G04 #@! TA.AperFunction,ViaPad*
%ADD37C,1.8*%
G04 #@! TA.AperFunction,ComponentPad*
%ADD40R,2.2X2.2*%
%ADD43C,2.2*%
%ADD46R,2.7X2.7*%
%ADD51R,1.1X0.6*%
%ADD53R,2.15X0.95*%
%ADD54R,2.15X3.25*%
G04 #@! TA.AperFunction,ComponentPad*
%ADD55R,1.6X1.6*%
%ADD57C,1.6*%
%ADD101OUTLINE0*%
%ADD102OUTLINE1*%
%ADD103OUTLINE2*%
%FSLAX35Y35*%
G04*
G71*
G90*
G75*
G01*
G04 Bottom*
%LPD*%
X2079750Y4623373D2*
D13*
X3059750D1*
X3061750Y4621373D1*
X3158123Y10636123D2*
X2508123D1*
Y10747250D1*
X2412873Y10842500D1*
X1269877D1*
X1089750Y10662373D1*
Y4973373D1*
X1249750Y4813373D1*
X1399750D1*
X1679750D2*
X2020750D1*
X2079750Y4754373D1*
Y4623373D1*
X4899750Y2103373D2*
Y1972373D1*
X4768500Y1841123D1*
Y1485373D1*
X4770750Y1744373D2*
X4768500Y1841123D1*
X4649750Y2438373D2*
X4692750Y2303373D1*
Y2061373D1*
X4632750Y2001373D1*
X4508750D1*
X4514500Y1485373D2*
Y1744373D1*
Y1995623D1*
X4508750Y2001373D1*
X4514750Y1744373D2*
X4514500D1*
X4266750Y2005373D2*
Y1744373D1*
Y1489747D1*
X4261500Y1484497D1*
X4019750Y2367373D2*
Y2114373D1*
X4128750Y2005373D1*
X4266750D1*
X4267750Y1744373D2*
X4266750D1*
X3485750Y2283373D2*
X3612750D1*
X4001750Y1894373D1*
Y1744373D1*
Y1489247D1*
X4006500Y1484497D1*
X4002750Y1744373D2*
X4001750D1*
X3206750Y2286373D2*
Y2160373D1*
X3264750Y2102373D1*
X3581750D1*
X3743750Y1940373D1*
Y1806373D1*
X3749750Y1800373D1*
Y1487373D1*
X3752623Y1484500D1*
X3749750Y1744373D2*
X3743750Y1806373D1*
X4261750Y3221373D2*
Y3005373D1*
X4464750Y2802373D1*
X4750750D1*
X4899750Y2653373D1*
Y2293373D1*
X5139750D2*
X4899750D1*
X3661750Y3221373D2*
Y3001373D1*
X3989750Y2673373D1*
X4019750D1*
Y2653373D1*
X4434750D1*
X4508750Y2579373D1*
Y2191373D1*
X4019750Y2647373D2*
Y2653373D1*
X4369750Y2438373D2*
X4261750D1*
X4193750Y2506373D1*
X3726750D1*
X3461750Y2771373D1*
Y3221373D1*
X4266750Y2195373D2*
X4261750D1*
Y2438373D1*
X3485750Y2473373D2*
X3437750D1*
X2901750Y3009373D1*
Y3630373D1*
X3254750Y3983373D1*
X3757750D1*
X4261750Y4487373D1*
Y4621373D1*
X3206750Y2476373D2*
Y2490373D1*
X2463750Y3233373D1*
X2181750D1*
X1890750Y3524373D1*
Y3882373D1*
X2271750Y4263373D1*
X3619750D1*
X3861750Y4505373D1*
Y4621373D1*
X5139750Y2103373D2*
D14*
Y1928373D1*
X5069497Y1858120D1*
X5022623Y1811247D1*
Y1483373D1*
X5645750Y2343373D2*
X5369750D1*
Y1944373D1*
X5139750D1*
Y2103373D1*
X5731750Y1610373D2*
X5719750D1*
X5369750Y1960373D1*
Y2343373D1*
X4461750Y3221373D2*
Y3054373D1*
X4541750Y2974373D1*
X5375750D1*
Y3226373D1*
X5732750Y3583373D1*
X5793750D1*
X5799750Y3577373D1*
X5369750Y2643373D2*
X5375750D1*
Y2963373D1*
Y2974373D1*
X5369750Y2643373D2*
Y2343373D1*
X5022623Y1483373D2*
Y1346247D1*
X4929750Y1253373D1*
X2989873D1*
X2736750D1*
X2469750D1*
X1617750D1*
X1538750Y1332373D1*
D15*
Y1705373D1*
D14*
X1710750Y1877373D1*
Y2167743D1*
X1621120Y2257373D1*
X1538750Y2339743D1*
Y2428373D1*
X2990873Y1484373D2*
X2989873Y1253373D1*
X2737750Y1484250D2*
X2736750Y1253373D1*
X2481873Y1484497D2*
X2469750D1*
Y1253373D1*
X5719750Y6763373D2*
Y6493373D1*
Y6245373D1*
Y5983373D1*
X5655873Y5919497D1*
X5629750D1*
X5720750Y6245373D2*
X5719750D1*
X4198750Y9108373D2*
X4191750D1*
Y8557373D1*
X4793750Y9293373D2*
Y9523373D1*
X4374750D1*
X4198750Y9347373D1*
Y9108373D1*
X6047377Y7840773D2*
X6239750D1*
Y8033373D1*
X6026750Y8246373D1*
Y9402373D1*
X5905750Y9523373D1*
X4793750D1*
X4169750Y6553373D2*
X4589750D1*
X4759750D1*
X4831593Y6625217D1*
X4877750Y6671373D1*
Y7724660D1*
X4698143Y7904267D1*
Y8634767D1*
X4793750Y8730373D1*
Y9293373D1*
X4589750Y6823373D2*
Y6553373D1*
X3169750Y6683373D2*
Y6553373D1*
X4169750D1*
X2231503Y6867393D2*
D15*
X2163770D1*
X2109750Y6813373D1*
Y6553373D1*
X4949750Y6493373D2*
D14*
Y6507060D1*
X4831593Y6625217D1*
X5711750Y6493373D2*
X5719750D1*
X6239750Y7840773D2*
Y3023373D1*
X6179750Y2963373D1*
X6069750D1*
X5789750D2*
X5375750D1*
X1539750Y4613373D2*
Y4553373D1*
X1609750Y5383373D2*
D15*
Y5033373D1*
X1539750Y4963373D1*
Y4553373D1*
X2031877Y10191623D2*
D14*
X1381877D1*
X3158123D1*
Y10186123D1*
X2508123D1*
X2109750Y6553373D2*
X2599750D1*
Y6733373D1*
X2508123Y10186123D2*
X1379750D1*
Y6173373D1*
X1489750Y6063373D1*
X1609750D1*
Y5383373D1*
X2599750Y6553373D2*
D15*
X3169750D1*
X2109750D2*
Y6173373D1*
X1999750Y6063373D1*
X1609750D1*
X4169750Y6553373D2*
D13*
X4460750D1*
D14*
Y5670373D1*
X1983750Y9113373D2*
X3248750D1*
X3295750D1*
X3502750D1*
X3756750D1*
X4010750D1*
X4193750D1*
X4198750Y9108373D1*
X4011750Y9673123D2*
X4010750Y9446373D1*
Y9113373D1*
X3757750Y9673123D2*
X3756750Y9449373D1*
Y9113373D1*
X3503750Y9673123D2*
X3502750Y9441373D1*
Y9113373D1*
X3249750Y9673123D2*
X3248750Y9444373D1*
Y9113373D1*
X3295750Y8801373D2*
Y9113373D1*
X3250750Y9444373D2*
X3248750D1*
X3504750Y9441373D2*
X3502750D1*
X3753750Y9449373D2*
X3756750D1*
X4008750Y9446373D2*
X4010750D1*
X5024750Y1744373D2*
X5069497Y1858120D1*
X2483750Y1744373D2*
D13*
Y1486373D1*
X2481873Y1484497D1*
X2739750Y1744373D2*
Y1486250D1*
X2737750Y1484250D1*
X2993750Y1742373D2*
Y1487250D1*
X2990873Y1484373D1*
X2020750Y2257373D2*
X1621120D1*
X1539750Y4273373D2*
D14*
Y2429373D1*
X1538750Y2428373D1*
X3861750Y3221373D2*
D13*
Y3358373D1*
X4025750Y3522373D1*
X5080750D1*
X5389750Y3831373D1*
X5799750D1*
X5389750Y4943373D2*
Y3831373D1*
X5629750Y5427373D2*
X5623750D1*
X5389750Y5193373D1*
Y4943373D1*
X3861750Y3221373D2*
Y3010373D1*
X3998750Y2873373D1*
X4129750D1*
X2031877Y10641623D2*
X1381877D1*
X1203750Y10463497D1*
Y5359373D1*
X1329750Y5233373D1*
Y5223373D1*
Y3913373D2*
Y2873373D1*
X4061750Y3221373D2*
Y3297373D1*
X4121750Y3357373D1*
X4500750D1*
X4609750Y3248373D1*
X5039750D1*
X5492750Y3701373D1*
X5877750D1*
X5939750Y3763373D1*
Y4085373D1*
Y4943373D1*
X5799750Y4085373D2*
X5939750D1*
Y4943373D2*
Y6941373D1*
X5867750Y7013373D1*
X5719750D1*
X2029750Y3702373D2*
X2733750D1*
X3164750Y4133373D1*
X3690750D1*
X4061750Y4504373D1*
Y4621373D1*
X1749750Y3702373D2*
Y2936373D1*
Y2428373D1*
X1728750D1*
X2208750Y2936373D2*
X1749750D1*
X2020750Y2384373D2*
X1885750D1*
X1841750Y2428373D1*
X1728750D1*
X5169750Y8167380D2*
Y8333373D1*
X5221963Y8385587D1*
Y8428087D1*
X5301750Y8507873D1*
Y8793173D1*
Y9293373D1*
X5619277Y8793173D2*
X5301750D1*
X5184497Y8396340D2*
X5211210D1*
X5221963Y8385587D1*
X5409750Y7947380D2*
Y7840773D1*
Y7536487D1*
X5239750Y7366487D1*
Y4690373D1*
X4871750Y4322373D1*
X4556750D1*
X3947750Y3713373D1*
X3472750D1*
X3261750Y3502373D1*
Y3221373D1*
X5857377Y7840773D2*
X5634670D1*
X5409750D1*
X5634670Y7968240D2*
Y7840773D1*
X5925750Y2343373D2*
D14*
X6058750D1*
X6132750Y2269373D1*
Y1782373D1*
X5960750Y1610373D1*
X5921750D1*
X5275750Y1484373D2*
Y1276373D1*
X5829750D1*
X5921750Y1368373D1*
Y1610373D1*
X5799750Y3323373D2*
D15*
X5929750D1*
Y2643373D1*
Y2347373D1*
X5925750Y2343373D1*
X5559750Y2643373D2*
X5929750D1*
X3461750Y4621373D2*
Y4505373D1*
X3369750Y4413373D1*
X1889750D1*
Y4623373D1*
X5579750Y4943373D2*
D13*
X5749750D1*
X5629750Y5173373D2*
X5639750D1*
Y5003373D1*
X5579750Y4943373D1*
X5440750Y6245373D2*
Y5852373D1*
X5499750Y5793373D1*
X5719750D1*
X5796750Y5716373D1*
Y5330373D1*
X5639750Y5173373D1*
X5719750Y7263373D2*
D15*
X5595750D1*
X5440750Y7108373D1*
Y6245373D1*
X3749750Y6913373D2*
D14*
X4079750D1*
X4168477Y7002100D1*
Y7013373D1*
Y7285527D1*
X4589750Y7013373D2*
X4168477D1*
X3169750Y6913373D2*
X3749750D1*
X1961503Y6962393D2*
D15*
Y7155127D1*
D14*
X2091903Y7285527D1*
X4168477D1*
X4461750Y4621373D2*
Y5481373D1*
X3461750D1*
Y4621373D1*
X5275750Y1484373D2*
D15*
Y1269373D1*
X5119750Y1113373D1*
X1239750D1*
X1099750Y1253373D1*
Y1490373D1*
X1395750D1*
X1099750D2*
Y4173373D1*
X1339750Y4413373D1*
X1889750D1*
X5799750Y3323373D2*
D13*
D3*
D15*
X5999750D1*
X6089750Y3413373D1*
Y7093373D1*
X5919750Y7263373D1*
X5719750D1*
X1399750Y1494373D2*
X1395750Y1490373D1*
X4460750Y5480373D2*
D14*
X4461750Y5481373D1*
X2849750Y6693373D2*
Y6833373D1*
X2929750Y6913373D1*
X3169750D1*
X2849750Y6413373D2*
Y6009373D1*
X3378750Y5480373D1*
X4460750D1*
X4641750Y7535373D2*
X4391903Y7285527D1*
X4168477D1*
X5719750Y7535373D2*
D15*
Y7263373D1*
X5276750Y1743373D2*
D14*
Y1485373D1*
X5275750Y1484373D1*
X1809750Y5923373D2*
D13*
Y5383373D1*
X1799750D1*
X3261750Y4621373D2*
Y4922373D1*
X3190750Y4993373D1*
X1949750D1*
X1799750Y5143373D1*
Y5383373D1*
X5809277Y8793173D2*
Y8945900D1*
X5809750Y8946373D1*
Y9293373D1*
X3856750Y7768373D2*
D14*
X4198750D1*
X4191750Y8277373D2*
Y7768373D1*
X4198750D1*
X4403517D1*
X4475917Y7840773D1*
Y8719540D1*
X4539750Y8783373D1*
Y9293373D1*
X1983750Y7758373D2*
Y7768373D1*
X3299750D1*
X3666750D1*
X3297023Y8069220D2*
X3299750Y7768373D1*
X3169750Y7143373D2*
D15*
X2598750D1*
X2417770Y6962393D1*
X2387750D1*
X2231503D1*
X2599750Y6923373D2*
Y7143373D1*
X2598750D1*
X1983750Y7758373D2*
D14*
X1854750D1*
X1719750Y7623373D1*
Y6873373D1*
Y6293373D1*
X1809750Y6203373D1*
X2231503Y6772393D2*
D15*
X2348770D1*
X2387750Y6811373D1*
Y6962393D1*
X2231503D2*
X2128770D1*
X2039750Y6873373D1*
X1719750D1*
X1961503Y6772393D2*
D13*
Y6725127D1*
X1919750Y6683373D1*
Y6553373D1*
X1983750Y8058373D2*
D14*
X2603177D1*
X2614023Y8069220D1*
X4229750Y10643373D2*
Y10788373D1*
X4154750Y10863373D1*
X4019750D1*
X3819750D1*
X3484750D1*
X3409750Y10788373D1*
Y10643373D1*
X3819750D2*
Y10863373D1*
Y10643373D2*
Y10233373D1*
X3458937Y9872560D1*
X2018937D1*
X1552750Y9406373D1*
Y8540373D1*
X2049750Y8043373D1*
X1998750D1*
X1983750Y8058373D1*
X4019750Y10643373D2*
Y10863373D1*
X3619750Y10643373D2*
Y10243373D1*
X3391797Y10015420D1*
X1851797D1*
X1649750Y9813373D1*
X1629750D1*
X1974750Y1744373D2*
D13*
Y1484873D1*
X1974373Y1484497D1*
X2020750Y2638373D2*
X2287750D1*
X2392750Y2533373D1*
Y2384373D1*
Y2257373D1*
Y1984373D1*
X2560750Y2384373D2*
X2392750D1*
X2560750Y2257373D2*
X2392750D1*
X2560750Y2511373D2*
X2839750D1*
Y2280373D1*
X3143750Y1976373D1*
X3453750D1*
X3499750Y1930373D1*
Y1798373D1*
Y1484123D1*
X2398750Y2936373D2*
X2540750D1*
X2839750Y2637373D1*
Y2511373D1*
X2560750Y2638373D2*
X2839750Y2637373D1*
X3500750Y1744373D2*
X3499750Y1798373D1*
X1983750Y8813373D2*
D14*
X2600750D1*
X2612750Y8801373D1*
X1929750Y9488373D2*
X1914750D1*
X1727750Y9301373D1*
Y8925373D1*
X1839750Y8813373D1*
X1983750D1*
X3061750Y3221373D2*
D13*
Y3543373D1*
X3371750Y3853373D1*
X3868750D1*
X5119750Y5104373D1*
Y7436967D1*
X5174343Y7491560D1*
Y7957967D1*
X5169750Y7953373D1*
Y7947380D1*
X4904497Y8396340D2*
Y8047127D1*
X5004243Y7947380D1*
X5169750D1*
X5409750Y8167380D2*
Y8093373D1*
X5379750Y8063373D1*
X5089750D1*
X5047750Y8105373D1*
Y9293373D1*
X5634670Y8158240D2*
X5418890D1*
X5409750Y8167380D1*
X2020750Y2511373D2*
D15*
X2169750D1*
X2202750Y2478373D1*
Y1984373D1*
X1998750D1*
X1679750Y1665373D1*
Y1494373D1*
X2229750Y1744373D2*
D13*
Y1486247D1*
X2228250Y1484747D1*
X3247750Y1744373D2*
Y1485623D1*
X3246250Y1484123D1*
D37*
X4641750Y7535373D3*
X5719750D3*
X4129750Y2873373D3*
X1329750D3*
X5711750Y6493373D3*
X4949750D3*
X1329750Y5223373D3*
Y3913373D3*
D18*
X1919750Y6553373D3*
X2109750D3*
D19*
X4191750Y8277373D3*
Y8557373D3*
D20*
X2612750Y8801373D3*
X2614023Y8069220D3*
X3295750Y8801373D3*
X3297023Y8069220D3*
X4169750Y6553373D3*
X4168477Y7285527D3*
D21*
X4589750Y7013373D3*
Y6823373D3*
D18*
X5731750Y1610373D3*
X5921750D3*
D21*
X4460750Y5670373D3*
Y5480373D3*
D22*
X5720750Y6245373D3*
X5440750D3*
D18*
X5369750Y2643373D3*
X5559750D3*
D22*
X5925750Y2343373D3*
X5645750D3*
D24*
X5409750Y7947380D3*
Y8167380D3*
X5169750Y7947380D3*
Y8167380D3*
D22*
X6069750Y2963373D3*
X5789750D3*
X1679750Y1494373D3*
X1399750D3*
D19*
X1539750Y4553373D3*
Y4273373D3*
X2849750Y6693373D3*
Y6413373D3*
D22*
X1679750Y4813373D3*
X1399750D3*
D25*
X1629750Y9813373D3*
D29*
X1929750Y9488373D3*
D30*
X3250750Y9444373D3*
X3504750Y9441373D3*
X3753750Y9449373D3*
X4008750Y9446373D3*
D3*
X5024750Y1744373D3*
X5276750Y1743373D3*
X4770750Y1744373D3*
X4514750D3*
X4267750D3*
X4002750D3*
X3749750D3*
X3500750D3*
X2993750Y1742373D3*
X3247750Y1744373D3*
X2739750D3*
X2483750D3*
X2229750D3*
X1974750D3*
D32*
X2020750Y2257373D3*
Y2384373D3*
Y2511373D3*
Y2638373D3*
X2560750D3*
Y2511373D3*
Y2384373D3*
Y2257373D3*
D21*
X4899750Y2293373D3*
Y2103373D3*
X4508750Y2191373D3*
Y2001373D3*
X4266750Y2195373D3*
Y2005373D3*
X3485750Y2473373D3*
Y2283373D3*
X3206750Y2476373D3*
Y2286373D3*
X5139750Y2293373D3*
Y2103373D3*
D18*
X5749750Y4943373D3*
X5939750D3*
X5579750D3*
X5389750D3*
D22*
X2029750Y3702373D3*
X1749750D3*
D18*
X6047377Y7840773D3*
X5857377D3*
X5809277Y8793173D3*
X5619277D3*
X2079750Y4623373D3*
X1889750D3*
D19*
X1809750Y5923373D3*
Y6203373D3*
D18*
X1799750Y5383373D3*
X1609750D3*
X3856750Y7768373D3*
X3666750D3*
X1728750Y2428373D3*
X1538750D3*
X2208750Y2936373D3*
X2398750D3*
X2202750Y1984373D3*
X2392750D3*
D19*
X4019750Y2647373D3*
Y2367373D3*
D22*
X4369750Y2438373D3*
X4649750D3*
D21*
X5634670Y8158240D3*
Y7968240D3*
D22*
X5184497Y8396340D3*
X4904497D3*
D33*
X2508123Y10636123D3*
D34*
Y10186123D3*
X3158123D3*
Y10636123D3*
D33*
X2031877Y10191623D3*
D34*
Y10641623D3*
X1381877D3*
Y10191623D3*
D35*
X3619750Y10643373D3*
X3819750D3*
X4019750D3*
D36*
X3409750D3*
X4229750D3*
D40*
X5275750Y1484373D3*
D43*
X5022623Y1483373D3*
X4768500Y1485373D3*
X4514500D3*
X4261500Y1484497D3*
X4006500D3*
X3752623Y1484500D3*
X3499750Y1484123D3*
X3246250D3*
X2737750Y1484250D3*
X2990873Y1484373D3*
X2481873Y1484497D3*
X2228250Y1484747D3*
X1974373Y1484497D3*
X4011750Y9673123D3*
X3757750D3*
X3503750D3*
X3249750D3*
D101*
X4461750Y3221373D3*
X4261750D3*
X4061750D3*
X3861750D3*
X3661750D3*
X3461750D3*
X3261750D3*
X3061750D3*
D102*
X4461750Y4621373D3*
X4261750D3*
X4061750D3*
X3861750D3*
X3661750D3*
X3461750D3*
X3261750D3*
X3061750D3*
D103*
X4611750Y3621373D3*
Y4421373D3*
Y3421373D3*
Y4021373D3*
Y3821373D3*
Y4221373D3*
D46*
X4198750Y9108373D3*
Y7768373D3*
X1983750Y7758373D3*
Y8058373D3*
Y8813373D3*
Y9113373D3*
D35*
X4539750Y9293373D3*
X4793750D3*
X5047750D3*
X5301750D3*
X5555750D3*
X5809750D3*
D51*
X2231503Y6962393D3*
Y6867393D3*
Y6772393D3*
X1961503D3*
Y6962393D3*
D53*
X3169750Y6683373D3*
Y6913373D3*
Y7143373D3*
D54*
X3749750Y6913373D3*
D35*
X5629750Y5173373D3*
Y5427373D3*
Y5665497D3*
Y5919497D3*
X5799750Y3323373D3*
Y3577373D3*
Y3831373D3*
Y4085373D3*
Y4339373D3*
Y4593373D3*
D55*
X5719750Y6763373D3*
D57*
Y7013373D3*
Y7263373D3*
D21*
X2599750Y6733373D3*
Y6923373D3*
M02*
