G04 DipTrace 3.1.0.1*
G04 Нижняямаркировка.gbr*
%MOMM*%
G04 #@! TF.FileFunction,Legend,Bot*
G04 #@! TF.Part,Single*
%ADD10C,0.25*%
%ADD16C,0.2*%
%ADD17C,0.03333*%
%ADD23O,0.23999X0.23961*%
%ADD44C,0.6096*%
%ADD50O,0.39103X0.39118*%
%ADD52O,0.39193X0.39124*%
%ADD99C,0.19608*%
%ADD100C,0.31373*%
%FSLAX35Y35*%
G04*
G71*
G90*
G75*
G01*
G04 BotSilk*
%LPD*%
X2014750Y6616867D2*
D10*
Y6489880D1*
Y6458123D1*
Y6616867D2*
Y6648623D1*
X4096500Y8417373D2*
X4318750D1*
X4128250D2*
X4064750D1*
X4653244Y6918373D2*
X4526256D1*
X4494500D1*
X4653244D2*
X4685000D1*
X5826750Y1673867D2*
Y1546880D1*
Y1515123D1*
Y1673867D2*
Y1705623D1*
X4524244Y5575373D2*
X4397256D1*
X4365500D1*
X4524244D2*
X4556000D1*
X5580750Y6150123D2*
Y6372373D1*
Y6181873D2*
Y6118373D1*
X5464750Y2706867D2*
Y2579880D1*
Y2548123D1*
Y2706867D2*
Y2738623D1*
X5785750Y2248123D2*
Y2470373D1*
Y2279873D2*
Y2216373D1*
X5469748Y7977367D2*
Y8137365D1*
X5349752Y7977367D2*
Y8137365D1*
D23*
X5409750Y7883367D3*
X5229748Y7977367D2*
D10*
Y8137365D1*
X5109752Y7977367D2*
Y8137365D1*
D23*
X5169750Y7883367D3*
X5959670Y2883453D2*
D10*
X5899830D1*
X5959670Y3043293D2*
X5899830D1*
X1569670Y1414453D2*
X1509830D1*
X1569670Y1574293D2*
X1509830D1*
X1619670Y4443293D2*
Y4383453D1*
X1459830Y4443293D2*
Y4383453D1*
X2929670Y6583293D2*
Y6523453D1*
X2769830Y6583293D2*
Y6523453D1*
X1569670Y4733453D2*
X1509830D1*
X1569670Y4893293D2*
X1509830D1*
X2160732Y2197868D2*
Y2697878D1*
X2420768Y2197868D2*
Y2697878D1*
X2160732D2*
X2420768D1*
X2240726Y2197868D2*
X2160732D1*
X2340774D2*
X2420768D1*
X2240726D2*
G02X2340774Y2197868I50024J-23D01*
G01*
X1919670Y3622453D2*
X1859830D1*
X1919670Y3782293D2*
X1859830D1*
X1729830Y6033453D2*
Y6093293D1*
X1889670Y6033453D2*
Y6093293D1*
X4099670Y2537293D2*
Y2477453D1*
X3939830Y2537293D2*
Y2477453D1*
X4479830Y2518293D2*
X4539670D1*
X4479830Y2358453D2*
X4539670D1*
X5074417Y8316420D2*
X5014577D1*
X5074417Y8476260D2*
X5014577D1*
X2653133Y10411123D2*
G02X2653133Y10411123I179990J0D01*
G01*
X2603113Y10111105D2*
X3063133D1*
X3133161Y10311117D2*
Y10511129D1*
X3063133Y10711141D2*
X2633125D1*
X2533085Y10511129D2*
Y10311117D1*
X2683145Y10411123D2*
G02X2683145Y10411123I149978J0D01*
G01*
X1526887Y10416623D2*
G02X1526887Y10416623I179990J0D01*
G01*
X1936887Y10716641D2*
X1476867D1*
X1406839Y10516629D2*
Y10316617D1*
X1476867Y10116605D2*
X1906875D1*
X2006915Y10316617D2*
Y10516629D1*
X1556899Y10416623D2*
G02X1556899Y10416623I149978J0D01*
G01*
X6218373Y10038248D2*
X1074873D1*
Y1243498D1*
X6218373D1*
Y10038248D1*
X2212997Y3117570D2*
X2974976D1*
X2212997D2*
Y4720999D1*
X2974976D1*
X2800281D2*
Y4467047D1*
Y4339984D2*
Y3133584D1*
X4566757Y3111304D2*
X4616854D1*
X2781784Y4401427D2*
D44*
X2291866D1*
Y4311439D1*
X2661552D1*
Y4211355D1*
X2301629D1*
Y4091429D1*
X2661552D1*
Y3971328D1*
X2301629D1*
Y3861323D1*
X2651790D1*
Y3751318D1*
X2301629D1*
Y3351331D1*
X4616854Y3111304D2*
D10*
Y3336362D1*
X2791803Y4401427D2*
D44*
X2851662D1*
Y3751318D1*
X4626102Y4514565D2*
D10*
Y4720999D1*
X4546719D1*
D50*
X2273732Y7030754D3*
X2136405Y7017388D2*
D10*
Y6717393D1*
X2056419Y7017388D2*
Y6717393D1*
X2136405D2*
X2056419D1*
X2136405Y7017388D2*
X2056419D1*
D52*
X3093056Y6586017D3*
X3319751Y6583377D2*
D10*
Y7243345D1*
X3599749Y6583377D2*
Y7243345D1*
X3319751D2*
X3599749D1*
X3319751Y6583377D2*
X3599749D1*
X2536256Y6828373D2*
X2663244D1*
X2695000D1*
X2536256D2*
X2504500D1*
X5603750Y1988873D2*
D16*
X5604218Y2001953D1*
X5605619Y2014968D1*
X5607946Y2027857D1*
X5611188Y2040555D1*
X5615329Y2053002D1*
X5620349Y2065136D1*
X5626224Y2076899D1*
X5632925Y2088233D1*
X5640419Y2099083D1*
X5648669Y2109396D1*
X5657637Y2119122D1*
X5667277Y2128213D1*
X5677543Y2136625D1*
X5688385Y2144318D1*
X5699750Y2151253D1*
X5711583Y2157397D1*
X5723826Y2162720D1*
X5736419Y2167196D1*
X5749301Y2170804D1*
X5762410Y2173525D1*
X5775681Y2175346D1*
X5789049Y2176259D1*
X5802451D1*
X5815819Y2175346D1*
X5829090Y2173525D1*
X5842199Y2170804D1*
X5855081Y2167196D1*
X5867674Y2162720D1*
X5879917Y2157397D1*
X5891750Y2151253D1*
X5903115Y2144318D1*
X5913957Y2136625D1*
X5924223Y2128213D1*
X5933863Y2119122D1*
X5942831Y2109396D1*
X5951081Y2099083D1*
X5958575Y2088233D1*
X5965276Y2076899D1*
X5971151Y2065136D1*
X5976171Y2053002D1*
X5980312Y2040555D1*
X5983554Y2027857D1*
X5985881Y2014968D1*
X5987282Y2001953D1*
X5987750Y1988873D1*
X5987282Y1975794D1*
X5985881Y1962778D1*
X5983554Y1949890D1*
X5980312Y1937191D1*
X5976171Y1924745D1*
X5971151Y1912610D1*
X5965276Y1900847D1*
X5958575Y1889513D1*
X5951081Y1878664D1*
X5942831Y1868351D1*
X5933863Y1858625D1*
X5924223Y1849534D1*
X5913957Y1841121D1*
X5903115Y1833429D1*
X5891750Y1826494D1*
X5879917Y1820349D1*
X5867674Y1815026D1*
X5855081Y1810550D1*
X5842199Y1806943D1*
X5829090Y1804222D1*
X5815819Y1802400D1*
X5802451Y1801488D1*
X5789049D1*
X5775681Y1802400D1*
X5762410Y1804222D1*
X5749301Y1806943D1*
X5736419Y1810550D1*
X5723826Y1815026D1*
X5711583Y1820349D1*
X5699750Y1826494D1*
X5688385Y1833429D1*
X5677543Y1841121D1*
X5667277Y1849534D1*
X5657637Y1858625D1*
X5648669Y1868351D1*
X5640419Y1878664D1*
X5632925Y1889513D1*
X5626224Y1900847D1*
X5620349Y1912610D1*
X5615329Y1924745D1*
X5611188Y1937191D1*
X5607946Y1949890D1*
X5605619Y1962778D1*
X5604218Y1975794D1*
X5603750Y1988873D1*
X5278750Y1745373D2*
D17*
X1826750D1*
X1254750Y2005873D2*
D16*
X1255206Y2018743D1*
X1256570Y2031551D1*
X1258836Y2044233D1*
X1261994Y2056728D1*
X1266027Y2068976D1*
X1270917Y2080916D1*
X1276639Y2092491D1*
X1283165Y2103643D1*
X1290464Y2114320D1*
X1298500Y2124468D1*
X1307233Y2134038D1*
X1316623Y2142984D1*
X1326621Y2151261D1*
X1337181Y2158831D1*
X1348250Y2165655D1*
X1359775Y2171701D1*
X1371699Y2176939D1*
X1383964Y2181343D1*
X1396511Y2184893D1*
X1409278Y2187570D1*
X1422203Y2189363D1*
X1435224Y2190261D1*
X1448276D1*
X1461297Y2189363D1*
X1474222Y2187570D1*
X1486989Y2184893D1*
X1499536Y2181343D1*
X1511801Y2176939D1*
X1523725Y2171701D1*
X1535250Y2165655D1*
X1546319Y2158831D1*
X1556879Y2151261D1*
X1566877Y2142984D1*
X1576267Y2134038D1*
X1585000Y2124468D1*
X1593036Y2114320D1*
X1600335Y2103643D1*
X1606861Y2092491D1*
X1612583Y2080916D1*
X1617473Y2068976D1*
X1621506Y2056728D1*
X1624664Y2044233D1*
X1626930Y2031551D1*
X1628294Y2018743D1*
X1628750Y2005873D1*
X1628294Y1993003D1*
X1626930Y1980196D1*
X1624664Y1967514D1*
X1621506Y1955018D1*
X1617473Y1942771D1*
X1612583Y1930830D1*
X1606861Y1919256D1*
X1600335Y1908103D1*
X1593036Y1897427D1*
X1585000Y1887279D1*
X1576267Y1877709D1*
X1566877Y1868763D1*
X1556879Y1860485D1*
X1546319Y1852916D1*
X1535250Y1846092D1*
X1523725Y1840046D1*
X1511801Y1834808D1*
X1499536Y1830403D1*
X1486989Y1826854D1*
X1474222Y1824176D1*
X1461297Y1822384D1*
X1448276Y1821486D1*
X1435224D1*
X1422203Y1822384D1*
X1409278Y1824176D1*
X1396511Y1826854D1*
X1383964Y1830403D1*
X1371699Y1834808D1*
X1359775Y1840046D1*
X1348250Y1846092D1*
X1337181Y1852916D1*
X1326621Y1860485D1*
X1316623Y1868763D1*
X1307233Y1877709D1*
X1298500Y1887279D1*
X1290464Y1897427D1*
X1283165Y1908103D1*
X1276639Y1919256D1*
X1270917Y1930830D1*
X1266027Y1942771D1*
X1261994Y1955018D1*
X1258836Y1967514D1*
X1256570Y1980196D1*
X1255206Y1993003D1*
X1254750Y2005873D1*
X1704035Y6591287D2*
D99*
X1710071Y6603360D1*
X1722285Y6615573D1*
X1734358Y6621610D1*
X1758644D1*
X1770858Y6615573D1*
X1782931Y6603360D1*
X1789108Y6591287D1*
X1795144Y6573037D1*
Y6542573D1*
X1789108Y6524464D1*
X1782931Y6512250D1*
X1770858Y6500177D1*
X1758644Y6494000D1*
X1734358D1*
X1722285Y6500177D1*
X1710071Y6512250D1*
X1704035Y6524464D1*
X1664819Y6597183D2*
X1652606Y6603360D1*
X1634356Y6621470D1*
Y6494000D1*
X3909087Y8433963D2*
X3897014Y8440000D1*
X3884800Y8452213D1*
X3878764Y8464286D1*
Y8488573D1*
X3884800Y8500786D1*
X3897014Y8512859D1*
X3909087Y8519036D1*
X3927337Y8525073D1*
X3957800D1*
X3975910Y8519036D1*
X3988123Y8512859D1*
X4000196Y8500786D1*
X4006373Y8488573D1*
Y8464286D1*
X4000196Y8452213D1*
X3988123Y8440000D1*
X3975910Y8433963D1*
X3909227Y8388571D2*
X3903190D1*
X3890977Y8382534D1*
X3884940Y8376498D1*
X3878904Y8364284D1*
Y8339998D1*
X3884940Y8327924D1*
X3890977Y8321888D1*
X3903190Y8315711D1*
X3915263D1*
X3927477Y8321888D1*
X3945587Y8333961D1*
X4006373Y8394747D1*
Y8309674D1*
X2629976Y9084037D2*
X2636013Y9096110D1*
X2648226Y9108323D1*
X2660299Y9114360D1*
X2684586D1*
X2696799Y9108323D1*
X2708872Y9096110D1*
X2715049Y9084037D1*
X2721086Y9065787D1*
Y9035323D1*
X2715049Y9017214D1*
X2708872Y9005000D1*
X2696799Y8992927D1*
X2684586Y8986750D1*
X2660299D1*
X2648226Y8992927D1*
X2636013Y9005000D1*
X2629976Y9017214D1*
X2578547Y9114220D2*
X2511864D1*
X2548224Y9065646D1*
X2529974D1*
X2517901Y9059610D1*
X2511864Y9053573D1*
X2505687Y9035323D1*
Y9023250D1*
X2511864Y9005000D1*
X2523937Y8992787D1*
X2542187Y8986750D1*
X2560437D1*
X2578547Y8992787D1*
X2584584Y8998964D1*
X2590761Y9011037D1*
X3315995Y9084037D2*
X3322031Y9096110D1*
X3334245Y9108323D1*
X3346318Y9114360D1*
X3370604D1*
X3382818Y9108323D1*
X3394891Y9096110D1*
X3401068Y9084037D1*
X3407104Y9065787D1*
Y9035323D1*
X3401068Y9017214D1*
X3394891Y9005000D1*
X3382818Y8992927D1*
X3370604Y8986750D1*
X3346318D1*
X3334245Y8992927D1*
X3322031Y9005000D1*
X3315995Y9017214D1*
X3215992Y8986750D2*
Y9114220D1*
X3276779Y9029287D1*
X3185669D1*
X4195703Y6338190D2*
X4201739Y6350263D1*
X4213953Y6362477D1*
X4226026Y6368513D1*
X4250313D1*
X4262526Y6362477D1*
X4274599Y6350263D1*
X4280776Y6338190D1*
X4286813Y6319940D1*
Y6289477D1*
X4280776Y6271367D1*
X4274599Y6259154D1*
X4262526Y6247081D1*
X4250313Y6240904D1*
X4226026D1*
X4213953Y6247081D1*
X4201739Y6259154D1*
X4195703Y6271367D1*
X4083628Y6368373D2*
X4144274D1*
X4150310Y6313763D1*
X4144274Y6319800D1*
X4126024Y6325977D1*
X4107914D1*
X4089664Y6319800D1*
X4077451Y6307727D1*
X4071414Y6289477D1*
Y6277404D1*
X4077451Y6259154D1*
X4089664Y6246940D1*
X4107914Y6240904D1*
X4126024D1*
X4144274Y6246940D1*
X4150310Y6253117D1*
X4156487Y6265190D1*
X4778837Y6921875D2*
X4766764Y6927911D1*
X4754550Y6940125D1*
X4748514Y6952198D1*
Y6976484D1*
X4754550Y6988698D1*
X4766764Y7000771D1*
X4778837Y7006948D1*
X4797087Y7012984D1*
X4827550D1*
X4845660Y7006948D1*
X4857873Y7000771D1*
X4869946Y6988698D1*
X4876123Y6976484D1*
Y6952198D1*
X4869946Y6940124D1*
X4857873Y6927911D1*
X4845660Y6921875D1*
X4766763Y6809799D2*
X4754690Y6815836D1*
X4748654Y6834086D1*
Y6846159D1*
X4754690Y6864409D1*
X4772940Y6876622D1*
X4803264Y6882659D1*
X4833587D1*
X4857873Y6876622D1*
X4870087Y6864409D1*
X4876123Y6846159D1*
Y6840122D1*
X4870087Y6822013D1*
X4857873Y6809799D1*
X4839623Y6803763D1*
X4833586D1*
X4815336Y6809799D1*
X4803263Y6822013D1*
X4797227Y6840123D1*
Y6846159D1*
X4803264Y6864409D1*
X4815337Y6876622D1*
X4833587Y6882659D1*
X5463340Y1761287D2*
X5469376Y1773360D1*
X5481590Y1785573D1*
X5493663Y1791610D1*
X5517949D1*
X5530163Y1785573D1*
X5542236Y1773360D1*
X5548413Y1761287D1*
X5554449Y1743037D1*
Y1712573D1*
X5548413Y1694464D1*
X5542236Y1682250D1*
X5530163Y1670177D1*
X5517949Y1664000D1*
X5493663D1*
X5481590Y1670177D1*
X5469376Y1682250D1*
X5463340Y1694464D1*
X5399837Y1664000D2*
X5339051Y1791470D1*
X5424124D1*
X4209837Y5591893D2*
X4197764Y5597929D1*
X4185550Y5610143D1*
X4179514Y5622216D1*
Y5646502D1*
X4185550Y5658716D1*
X4197764Y5670789D1*
X4209837Y5676966D1*
X4228087Y5683002D1*
X4258550D1*
X4276660Y5676966D1*
X4288873Y5670789D1*
X4300946Y5658716D1*
X4307123Y5646502D1*
Y5622216D1*
X4300946Y5610143D1*
X4288873Y5597929D1*
X4276660Y5591893D1*
X4179654Y5522354D2*
X4185690Y5540464D1*
X4197764Y5546641D1*
X4209977D1*
X4222050Y5540464D1*
X4228227Y5528391D1*
X4234263Y5504104D1*
X4240300Y5485854D1*
X4252513Y5473781D1*
X4264586Y5467745D1*
X4282836D1*
X4294910Y5473781D1*
X4301087Y5479818D1*
X4307123Y5498068D1*
Y5522354D1*
X4301087Y5540464D1*
X4294910Y5546641D1*
X4282837Y5552677D1*
X4264587D1*
X4252514Y5546641D1*
X4240300Y5534427D1*
X4234264Y5516318D1*
X4228227Y5492031D1*
X4222050Y5479818D1*
X4209977Y5473781D1*
X4197763D1*
X4185690Y5479818D1*
X4179654Y5498068D1*
Y5522354D1*
X5444321Y6038037D2*
X5450358Y6050110D1*
X5462571Y6062323D1*
X5474644Y6068360D1*
X5498931D1*
X5511144Y6062323D1*
X5523217Y6050110D1*
X5529394Y6038037D1*
X5535431Y6019787D1*
Y5989323D1*
X5529394Y5971214D1*
X5523217Y5959000D1*
X5511144Y5946927D1*
X5498931Y5940750D1*
X5474644D1*
X5462571Y5946927D1*
X5450358Y5959000D1*
X5444321Y5971214D1*
X5326069Y6025823D2*
X5332246Y6007573D1*
X5344319Y5995360D1*
X5362569Y5989323D1*
X5368606D1*
X5386856Y5995360D1*
X5398929Y6007573D1*
X5405106Y6025823D1*
Y6031860D1*
X5398929Y6050110D1*
X5386856Y6062183D1*
X5368606Y6068220D1*
X5362569D1*
X5344319Y6062183D1*
X5332246Y6050110D1*
X5326069Y6025823D1*
Y5995360D1*
X5332246Y5965037D1*
X5344319Y5946787D1*
X5362569Y5940750D1*
X5374642D1*
X5392892Y5946787D1*
X5398929Y5959000D1*
X5516179Y2894287D2*
X5522216Y2906360D1*
X5534429Y2918573D1*
X5546502Y2924610D1*
X5570789D1*
X5583002Y2918573D1*
X5595075Y2906360D1*
X5601252Y2894287D1*
X5607289Y2876037D1*
Y2845573D1*
X5601252Y2827464D1*
X5595075Y2815250D1*
X5583002Y2803177D1*
X5570789Y2797000D1*
X5546502D1*
X5534429Y2803177D1*
X5522216Y2815250D1*
X5516179Y2827464D1*
X5476963Y2900183D2*
X5464750Y2906360D1*
X5446500Y2924470D1*
Y2797000D1*
X5370784Y2924470D2*
X5389034Y2918433D1*
X5401248Y2900183D1*
X5407284Y2869860D1*
Y2851610D1*
X5401248Y2821287D1*
X5389034Y2803037D1*
X5370784Y2797000D1*
X5358711D1*
X5340461Y2803037D1*
X5328388Y2821287D1*
X5322211Y2851610D1*
Y2869860D1*
X5328388Y2900183D1*
X5340461Y2918433D1*
X5358711Y2924470D1*
X5370784D1*
X5328388Y2900183D2*
X5401248Y2821287D1*
X5868874Y2637037D2*
X5874911Y2649110D1*
X5887124Y2661323D1*
X5899197Y2667360D1*
X5923484D1*
X5935697Y2661323D1*
X5947770Y2649110D1*
X5953947Y2637037D1*
X5959984Y2618787D1*
Y2588323D1*
X5953947Y2570214D1*
X5947770Y2558000D1*
X5935697Y2545927D1*
X5923484Y2539750D1*
X5899197D1*
X5887124Y2545927D1*
X5874911Y2558000D1*
X5868874Y2570214D1*
X5829659Y2642933D2*
X5817445Y2649110D1*
X5799195Y2667220D1*
Y2539750D1*
X5759980Y2642933D2*
X5747766Y2649110D1*
X5729516Y2667220D1*
Y2539750D1*
X5343765Y7801760D2*
X5471375Y7801759D1*
Y7759223D1*
X5465198Y7740973D1*
X5453125Y7728760D1*
X5440911Y7722723D1*
X5422802Y7716687D1*
X5392338D1*
X5374088Y7722723D1*
X5362015Y7728760D1*
X5349802Y7740973D1*
X5343765Y7759223D1*
Y7801760D1*
X5368192Y7677471D2*
X5362015Y7665258D1*
X5343905Y7647008D1*
X5471375D1*
X5103765Y7809064D2*
X5231375D1*
Y7766528D1*
X5225198Y7748278D1*
X5213125Y7736064D1*
X5200911Y7730028D1*
X5182802Y7723991D1*
X5152338D1*
X5134088Y7730028D1*
X5122015Y7736064D1*
X5109802Y7748278D1*
X5103765Y7766528D1*
Y7809064D1*
X5134229Y7678599D2*
X5128192D1*
X5115979Y7672562D1*
X5109942Y7666526D1*
X5103906Y7654312D1*
X5103905Y7630026D1*
X5109942Y7617953D1*
X5115979Y7611916D1*
X5128192Y7605739D1*
X5140265D1*
X5152479Y7611916D1*
X5170588Y7623989D1*
X5231375Y7684776D1*
Y7599703D1*
X5754196Y3239360D2*
Y3142214D1*
X5760233Y3123964D1*
X5766410Y3117927D1*
X5778483Y3111750D1*
X5790696D1*
X5802769Y3117927D1*
X5808806Y3123964D1*
X5814983Y3142214D1*
Y3154287D1*
X5714981Y3214933D2*
X5702767Y3221110D1*
X5684517Y3239220D1*
Y3111750D1*
X1231501Y1710360D2*
Y1613214D1*
X1237538Y1594964D1*
X1243715Y1588927D1*
X1255788Y1582750D1*
X1268001D1*
X1280074Y1588927D1*
X1286111Y1594964D1*
X1292288Y1613214D1*
Y1625287D1*
X1186109Y1679896D2*
Y1685933D1*
X1180072Y1698146D1*
X1174035Y1704183D1*
X1161822Y1710220D1*
X1137535D1*
X1125462Y1704183D1*
X1119426Y1698146D1*
X1113249Y1685933D1*
Y1673860D1*
X1119426Y1661646D1*
X1131499Y1643537D1*
X1192285Y1582750D1*
X1107212D1*
X1263764Y4445125D2*
X1360910D1*
X1379160Y4451161D1*
X1385196Y4457338D1*
X1391373Y4469411D1*
Y4481624D1*
X1385196Y4493698D1*
X1379160Y4499734D1*
X1360910Y4505911D1*
X1348837D1*
X1263904Y4393696D2*
Y4327013D1*
X1312477Y4363373D1*
Y4345123D1*
X1318513Y4333049D1*
X1324550Y4327013D1*
X1342800Y4320836D1*
X1354873D1*
X1373123Y4327013D1*
X1385337Y4339086D1*
X1391373Y4357336D1*
Y4375586D1*
X1385337Y4393695D1*
X1379160Y4399732D1*
X1367087Y4405909D1*
X2573764Y6438143D2*
X2670910D1*
X2689160Y6444179D1*
X2695196Y6450356D1*
X2701373Y6462429D1*
Y6474643D1*
X2695196Y6486716D1*
X2689160Y6492752D1*
X2670910Y6498929D1*
X2658837D1*
X2701373Y6338141D2*
X2573904D1*
X2658837Y6398927D1*
X2658836Y6307818D1*
X1571501Y5089360D2*
Y4992214D1*
X1577538Y4973964D1*
X1583715Y4967927D1*
X1595788Y4961750D1*
X1608001D1*
X1620074Y4967927D1*
X1626111Y4973964D1*
X1632288Y4992214D1*
Y5004287D1*
X1459426Y5089220D2*
X1520072D1*
X1526109Y5034610D1*
X1520072Y5040646D1*
X1501822Y5046823D1*
X1483712D1*
X1465462Y5040646D1*
X1453249Y5028573D1*
X1447212Y5010323D1*
Y4998250D1*
X1453249Y4980000D1*
X1465462Y4967787D1*
X1483712Y4961750D1*
X1501822D1*
X1520072Y4967787D1*
X1526109Y4973964D1*
X1532285Y4986037D1*
X2024733Y2875865D2*
X2036806Y2869969D1*
X2049019Y2857755D1*
X2055056Y2845542D1*
X2061233Y2827292D1*
Y2796969D1*
X2055056Y2778719D1*
X2049019Y2766646D1*
X2036806Y2754432D1*
X2024733Y2748396D1*
X2000446D1*
X1988233Y2754432D1*
X1976160Y2766646D1*
X1970123Y2778719D1*
X1963946Y2796969D1*
Y2827292D1*
X1970123Y2845542D1*
X1976160Y2857755D1*
X1988233Y2869969D1*
X2000446Y2875865D1*
X2024733D1*
X2006483Y2772682D2*
X1970123Y2736182D1*
X1924731Y2851438D2*
X1912517Y2857615D1*
X1894267Y2875725D1*
Y2748255D1*
X4889550Y2635750D2*
Y2581140D1*
X4883373Y2562890D1*
X4877337Y2556713D1*
X4865264Y2550677D1*
X4853050D1*
X4840977Y2556713D1*
X4834800Y2562890D1*
X4828764Y2581140D1*
Y2635750D1*
X4956373Y2635749D1*
X4889550Y2593213D2*
X4956373Y2550676D1*
X4853190Y2511461D2*
X4847013Y2499248D1*
X4828904Y2480998D1*
X4956373D1*
X4708550Y2201054D2*
Y2146445D1*
X4702373Y2128195D1*
X4696337Y2122018D1*
X4684264Y2115981D1*
X4672050D1*
X4659977Y2122018D1*
X4653800Y2128195D1*
X4647764Y2146445D1*
Y2201054D1*
X4775373D1*
X4708550Y2158518D2*
X4775373Y2115981D1*
X4678227Y2070589D2*
X4672190D1*
X4659977Y2064552D1*
X4653940Y2058516D1*
X4647904Y2046302D1*
Y2022016D1*
X4653940Y2009943D1*
X4659977Y2003906D1*
X4672190Y1997729D1*
X4684263D1*
X4696477Y2003906D1*
X4714587Y2015979D1*
X4775373Y2076766D1*
Y1991693D1*
X4066550Y2205054D2*
Y2150445D1*
X4060373Y2132195D1*
X4054337Y2126018D1*
X4042264Y2119981D1*
X4030050D1*
X4017977Y2126018D1*
X4011800Y2132195D1*
X4005764Y2150445D1*
Y2205054D1*
X4133373D1*
X4066550Y2162518D2*
X4133373Y2119981D1*
X4005904Y2068552D2*
Y2001870D1*
X4054477Y2038229D1*
Y2019979D1*
X4060513Y2007906D1*
X4066550Y2001870D1*
X4084800Y1995693D1*
X4096873D1*
X4115123Y2001870D1*
X4127337Y2013943D1*
X4133373Y2032193D1*
Y2050443D1*
X4127337Y2068552D1*
X4121160Y2074589D1*
X4109087Y2080766D1*
X3448550Y2991073D2*
Y2936463D1*
X3442373Y2918213D1*
X3436337Y2912036D1*
X3424264Y2906000D1*
X3412050D1*
X3399977Y2912036D1*
X3393800Y2918213D1*
X3387764Y2936463D1*
Y2991073D1*
X3515373D1*
X3448550Y2948536D2*
X3515373Y2905999D1*
Y2805997D2*
X3387904Y2805998D1*
X3472837Y2866784D1*
X3472836Y2775674D1*
X3182550Y3005054D2*
Y2950445D1*
X3176373Y2932195D1*
X3170337Y2926018D1*
X3158264Y2919981D1*
X3146050D1*
X3133977Y2926018D1*
X3127800Y2932195D1*
X3121764Y2950445D1*
Y3005054D1*
X3249373D1*
X3182550Y2962518D2*
X3249373Y2919981D1*
X3121904Y2807906D2*
Y2868552D1*
X3176514Y2874589D1*
X3170477Y2868552D1*
X3164300Y2850302D1*
Y2832193D1*
X3170477Y2813943D1*
X3182550Y2801729D1*
X3200800Y2795693D1*
X3212873D1*
X3231123Y2801729D1*
X3243337Y2813943D1*
X3249373Y2832193D1*
Y2850302D1*
X3243337Y2868552D1*
X3237160Y2874589D1*
X3225087Y2880766D1*
X5129550Y2639966D2*
Y2585356D1*
X5123373Y2567106D1*
X5117337Y2560929D1*
X5105264Y2554893D1*
X5093050D1*
X5080977Y2560929D1*
X5074800Y2567106D1*
X5068764Y2585356D1*
Y2639966D1*
X5196373D1*
X5129550Y2597429D2*
X5196373Y2554893D1*
X5087013Y2442818D2*
X5074940Y2448854D1*
X5068904Y2467104D1*
Y2479177D1*
X5074940Y2497427D1*
X5093190Y2509641D1*
X5123514Y2515677D1*
X5153837D1*
X5178123Y2509641D1*
X5190337Y2497427D1*
X5196373Y2479177D1*
Y2473141D1*
X5190337Y2455031D1*
X5178123Y2442818D1*
X5159873Y2436781D1*
X5153836D1*
X5135586Y2442818D1*
X5123513Y2455031D1*
X5117477Y2473141D1*
Y2479177D1*
X5123514Y2497427D1*
X5135587Y2509641D1*
X5153837Y2515677D1*
X5679431Y4763573D2*
X5624821D1*
X5606571Y4769750D1*
X5600394Y4775787D1*
X5594358Y4787860D1*
Y4800073D1*
X5600394Y4812146D1*
X5606571Y4818323D1*
X5624821Y4824360D1*
X5679431D1*
Y4696750D1*
X5636894Y4763573D2*
X5594358Y4696750D1*
X5530856D2*
X5470069Y4824220D1*
X5555142D1*
X5339361Y4763573D2*
X5284751D1*
X5266501Y4769750D1*
X5260324Y4775787D1*
X5254288Y4787860D1*
Y4800073D1*
X5260324Y4812146D1*
X5266501Y4818323D1*
X5284751Y4824360D1*
X5339361D1*
Y4696750D1*
X5296824Y4763573D2*
X5254288Y4696750D1*
X5184749Y4824220D2*
X5202859Y4818183D1*
X5209035Y4806110D1*
Y4793896D1*
X5202859Y4781823D1*
X5190785Y4775646D1*
X5166499Y4769610D1*
X5148249Y4763573D1*
X5136176Y4751360D1*
X5130139Y4739287D1*
Y4721037D1*
X5136176Y4708964D1*
X5142212Y4702787D1*
X5160462Y4696750D1*
X5184749D1*
X5202859Y4702787D1*
X5209035Y4708964D1*
X5215072Y4721037D1*
Y4739287D1*
X5209035Y4751360D1*
X5196822Y4763573D1*
X5178712Y4769610D1*
X5154426Y4775646D1*
X5142212Y4781823D1*
X5136176Y4793896D1*
Y4806110D1*
X5142212Y4818183D1*
X5160462Y4824220D1*
X5184749D1*
X1991413Y3917573D2*
X1936803D1*
X1918553Y3923750D1*
X1912376Y3929787D1*
X1906340Y3941860D1*
Y3954073D1*
X1912376Y3966146D1*
X1918553Y3972323D1*
X1936803Y3978360D1*
X1991413D1*
Y3850750D1*
X1948876Y3917573D2*
X1906340Y3850750D1*
X1788087Y3935823D2*
X1794264Y3917573D1*
X1806337Y3905360D1*
X1824587Y3899323D1*
X1830624D1*
X1848874Y3905360D1*
X1860947Y3917573D1*
X1867124Y3935823D1*
Y3941860D1*
X1860947Y3960110D1*
X1848874Y3972183D1*
X1830624Y3978220D1*
X1824587D1*
X1806337Y3972183D1*
X1794264Y3960110D1*
X1788087Y3935823D1*
Y3905360D1*
X1794264Y3875037D1*
X1806337Y3856787D1*
X1824587Y3850750D1*
X1836660D1*
X1854910Y3856787D1*
X1860947Y3869000D1*
X6091897Y8040973D2*
X6037288D1*
X6019038Y8047150D1*
X6012861Y8053187D1*
X6006824Y8065260D1*
Y8077473D1*
X6012861Y8089546D1*
X6019038Y8095723D1*
X6037288Y8101760D1*
X6091897D1*
Y7974150D1*
X6049361Y8040973D2*
X6006824Y7974150D1*
X5967608Y8077333D2*
X5955395Y8083510D1*
X5937145Y8101620D1*
Y7974150D1*
X5861429Y8101620D2*
X5879679Y8095583D1*
X5891893Y8077333D1*
X5897929Y8047010D1*
Y8028760D1*
X5891893Y7998437D1*
X5879679Y7980187D1*
X5861429Y7974150D1*
X5849356D1*
X5831106Y7980187D1*
X5819033Y7998437D1*
X5812856Y8028760D1*
Y8047010D1*
X5819033Y8077333D1*
X5831106Y8095583D1*
X5849356Y8101620D1*
X5861429D1*
X5819033Y8077333D2*
X5891893Y7998437D1*
X5826492Y8993373D2*
X5771883D1*
X5753633Y8999550D1*
X5747456Y9005587D1*
X5741419Y9017660D1*
Y9029873D1*
X5747456Y9041946D1*
X5753633Y9048123D1*
X5771883Y9054160D1*
X5826492D1*
Y8926550D1*
X5783956Y8993373D2*
X5741419Y8926550D1*
X5702204Y9029733D2*
X5689990Y9035910D1*
X5671740Y9054020D1*
Y8926550D1*
X5632524Y9029733D2*
X5620311Y9035910D1*
X5602061Y9054020D1*
Y8926550D1*
X2124270Y4823573D2*
X2069661D1*
X2051411Y4829750D1*
X2045234Y4835787D1*
X2039197Y4847860D1*
Y4860073D1*
X2045234Y4872146D1*
X2051411Y4878323D1*
X2069661Y4884360D1*
X2124270D1*
Y4756750D1*
X2081734Y4823573D2*
X2039197Y4756750D1*
X1999982Y4859933D2*
X1987768Y4866110D1*
X1969518Y4884220D1*
Y4756750D1*
X1924126Y4853896D2*
Y4859933D1*
X1918089Y4872146D1*
X1912053Y4878183D1*
X1899839Y4884220D1*
X1875553D1*
X1863480Y4878183D1*
X1857443Y4872146D1*
X1851266Y4859933D1*
Y4847860D1*
X1857443Y4835646D1*
X1869516Y4817537D1*
X1930303Y4756750D1*
X1845230D1*
X1594550Y6202894D2*
Y6148284D1*
X1588373Y6130034D1*
X1582337Y6123857D1*
X1570264Y6117821D1*
X1558050D1*
X1545977Y6123857D1*
X1539800Y6130034D1*
X1533764Y6148284D1*
Y6202894D1*
X1661373D1*
X1594550Y6160357D2*
X1661373Y6117821D1*
X1558190Y6078605D2*
X1552014Y6066392D1*
X1533904Y6048142D1*
X1661373D1*
X1533904Y5996713D2*
Y5930030D1*
X1582477Y5966390D1*
Y5948140D1*
X1588513Y5936067D1*
X1594550Y5930030D1*
X1612800Y5923853D1*
X1624873D1*
X1643123Y5930030D1*
X1655337Y5942103D1*
X1661373Y5960353D1*
Y5978603D1*
X1655337Y5996713D1*
X1649160Y6002749D1*
X1637087Y6008926D1*
X1847289Y5583573D2*
X1792679D1*
X1774429Y5589750D1*
X1768252Y5595787D1*
X1762216Y5607860D1*
Y5620073D1*
X1768252Y5632146D1*
X1774429Y5638323D1*
X1792679Y5644360D1*
X1847289D1*
Y5516750D1*
X1804752Y5583573D2*
X1762216Y5516750D1*
X1723000Y5619933D2*
X1710787Y5626110D1*
X1692537Y5644220D1*
Y5516750D1*
X1592534D2*
Y5644220D1*
X1653321Y5559287D1*
X1562211D1*
X3901270Y7968573D2*
X3846661D1*
X3828411Y7974750D1*
X3822234Y7980787D1*
X3816197Y7992860D1*
Y8005073D1*
X3822234Y8017146D1*
X3828411Y8023323D1*
X3846661Y8029360D1*
X3901270D1*
Y7901750D1*
X3858734Y7968573D2*
X3816197Y7901750D1*
X3776982Y8004933D2*
X3764768Y8011110D1*
X3746518Y8029220D1*
Y7901750D1*
X3634443Y8029220D2*
X3695089D1*
X3701126Y7974610D1*
X3695089Y7980646D1*
X3676839Y7986823D1*
X3658730D1*
X3640480Y7980646D1*
X3628266Y7968573D1*
X3622230Y7950323D1*
Y7938250D1*
X3628266Y7920000D1*
X3640480Y7907787D1*
X3658730Y7901750D1*
X3676839D1*
X3695089Y7907787D1*
X3701126Y7913964D1*
X3707303Y7926037D1*
X1890182Y2648573D2*
X1835572D1*
X1817322Y2654750D1*
X1811145Y2660787D1*
X1805109Y2672860D1*
Y2685073D1*
X1811145Y2697146D1*
X1817322Y2703323D1*
X1835572Y2709360D1*
X1890182D1*
Y2581750D1*
X1847645Y2648573D2*
X1805109Y2581750D1*
X1765893Y2684933D2*
X1753680Y2691110D1*
X1735430Y2709220D1*
Y2581750D1*
X1623355Y2691110D2*
X1629391Y2703183D1*
X1647641Y2709220D1*
X1659714D1*
X1677964Y2703183D1*
X1690178Y2684933D1*
X1696214Y2654610D1*
Y2624287D1*
X1690178Y2600000D1*
X1677964Y2587787D1*
X1659714Y2581750D1*
X1653678D1*
X1635568Y2587787D1*
X1623355Y2600000D1*
X1617318Y2618250D1*
Y2624287D1*
X1623355Y2642537D1*
X1635568Y2654610D1*
X1653678Y2660646D1*
X1659714D1*
X1677964Y2654610D1*
X1690178Y2642537D1*
X1696214Y2624287D1*
X2101270Y3086573D2*
X2046661D1*
X2028411Y3092750D1*
X2022234Y3098787D1*
X2016197Y3110860D1*
Y3123073D1*
X2022234Y3135146D1*
X2028411Y3141323D1*
X2046661Y3147360D1*
X2101270D1*
Y3019750D1*
X2058734Y3086573D2*
X2016197Y3019750D1*
X1976982Y3122933D2*
X1964768Y3129110D1*
X1946518Y3147220D1*
Y3019750D1*
X1883016D2*
X1822230Y3147220D1*
X1907303D1*
X2817200Y2084573D2*
X2762591D1*
X2744341Y2090750D1*
X2738164Y2096787D1*
X2732127Y2108860D1*
Y2121073D1*
X2738164Y2133146D1*
X2744341Y2139323D1*
X2762591Y2145360D1*
X2817200D1*
Y2017750D1*
X2774664Y2084573D2*
X2732127Y2017750D1*
X2692912Y2120933D2*
X2680698Y2127110D1*
X2662448Y2145220D1*
Y2017750D1*
X2592909Y2145220D2*
X2611019Y2139183D1*
X2617196Y2127110D1*
Y2114896D1*
X2611019Y2102823D1*
X2598946Y2096646D1*
X2574659Y2090610D1*
X2556409Y2084573D1*
X2544336Y2072360D1*
X2538300Y2060287D1*
Y2042037D1*
X2544336Y2029964D1*
X2550373Y2023787D1*
X2568623Y2017750D1*
X2592909D1*
X2611019Y2023787D1*
X2617196Y2029964D1*
X2623232Y2042037D1*
Y2060287D1*
X2617196Y2072360D1*
X2604982Y2084573D1*
X2586873Y2090610D1*
X2562586Y2096646D1*
X2550373Y2102823D1*
X2544336Y2114896D1*
Y2127110D1*
X2550373Y2139183D1*
X2568623Y2145220D1*
X2592909D1*
X3804550Y2643876D2*
Y2589266D1*
X3798373Y2571016D1*
X3792337Y2564839D1*
X3780264Y2558803D1*
X3768050D1*
X3755977Y2564839D1*
X3749800Y2571016D1*
X3743764Y2589266D1*
Y2643876D1*
X3871373D1*
X3804550Y2601339D2*
X3871373Y2558803D1*
X3768190Y2519587D2*
X3762014Y2507374D1*
X3743904Y2489124D1*
X3871373Y2489123D1*
X3786300Y2370871D2*
X3804550Y2377048D1*
X3816763Y2389121D1*
X3822800Y2407371D1*
Y2413408D1*
X3816764Y2431658D1*
X3804550Y2443731D1*
X3786300Y2449908D1*
X3780264D1*
X3762014Y2443731D1*
X3749940Y2431658D1*
X3743904Y2413408D1*
Y2407371D1*
X3749940Y2389121D1*
X3762013Y2377048D1*
X3786300Y2370871D1*
X3816763D1*
X3847086Y2377048D1*
X3865337Y2389121D1*
X3871373Y2407371D1*
Y2419444D1*
X3865337Y2437694D1*
X3853123Y2443731D1*
X4676575Y2653573D2*
X4621966D1*
X4603716Y2659750D1*
X4597539Y2665787D1*
X4591502Y2677860D1*
Y2690073D1*
X4597539Y2702146D1*
X4603716Y2708323D1*
X4621966Y2714360D1*
X4676575D1*
Y2586750D1*
X4634039Y2653573D2*
X4591502Y2586750D1*
X4546110Y2683896D2*
Y2689933D1*
X4540073Y2702146D1*
X4534037Y2708183D1*
X4521823Y2714220D1*
X4497537D1*
X4485463Y2708183D1*
X4479427Y2702146D1*
X4473250Y2689933D1*
Y2677860D1*
X4479427Y2665646D1*
X4491500Y2647537D1*
X4552287Y2586750D1*
X4467213D1*
X4391498Y2714220D2*
X4409748Y2708183D1*
X4421961Y2689933D1*
X4427998Y2659610D1*
Y2641360D1*
X4421961Y2611037D1*
X4409748Y2592787D1*
X4391498Y2586750D1*
X4379425D1*
X4361175Y2592787D1*
X4349102Y2611037D1*
X4342925Y2641360D1*
Y2659610D1*
X4349102Y2689933D1*
X4361175Y2708183D1*
X4379425Y2714220D1*
X4391498D1*
X4349102Y2689933D2*
X4421961Y2611037D1*
X5624950Y8567847D2*
Y8513238D1*
X5618773Y8494988D1*
X5612737Y8488811D1*
X5600664Y8482774D1*
X5588450D1*
X5576377Y8488811D1*
X5570200Y8494988D1*
X5564164Y8513238D1*
Y8567847D1*
X5691773D1*
X5624950Y8525311D2*
X5691773Y8482774D1*
X5594627Y8437382D2*
X5588590D1*
X5576377Y8431345D1*
X5570340Y8425309D1*
X5564304Y8413095D1*
Y8388809D1*
X5570340Y8376736D1*
X5576377Y8370699D1*
X5588590Y8364522D1*
X5600664D1*
X5612877Y8370699D1*
X5630987Y8382772D1*
X5691773Y8443558D1*
Y8358485D1*
X5588590Y8319270D2*
X5582413Y8307057D1*
X5564304Y8288807D1*
X5691773D1*
X5211322Y8611540D2*
X5156712D1*
X5138462Y8617717D1*
X5132285Y8623754D1*
X5126249Y8635827D1*
Y8648040D1*
X5132285Y8660113D1*
X5138462Y8666290D1*
X5156712Y8672327D1*
X5211322D1*
Y8544717D1*
X5168785Y8611540D2*
X5126249Y8544717D1*
X5080856Y8641863D2*
Y8647900D1*
X5074820Y8660113D1*
X5068783Y8666150D1*
X5056570Y8672186D1*
X5032283D1*
X5020210Y8666150D1*
X5014174Y8660113D1*
X5007997Y8647900D1*
Y8635827D1*
X5014174Y8623613D1*
X5026247Y8605504D1*
X5087033Y8544717D1*
X5001960D1*
X4956568Y8641863D2*
Y8647900D1*
X4950531Y8660113D1*
X4944494Y8666150D1*
X4932281Y8672186D1*
X4907994D1*
X4895921Y8666150D1*
X4889885Y8660113D1*
X4883708Y8647900D1*
Y8635827D1*
X4889885Y8623613D1*
X4901958Y8605504D1*
X4962744Y8544717D1*
X4877671D1*
X2255426Y10225860D2*
X2267499Y10238073D1*
X2285749Y10244110D1*
X2310036D1*
X2328286Y10238073D1*
X2340499Y10225860D1*
Y10213787D1*
X2334323Y10201573D1*
X2328286Y10195537D1*
X2316213Y10189500D1*
X2279713Y10177287D1*
X2267499Y10171250D1*
X2261463Y10165073D1*
X2255426Y10153000D1*
Y10134750D1*
X2267499Y10122677D1*
X2285749Y10116500D1*
X2310036D1*
X2328286Y10122677D1*
X2340499Y10134750D1*
X2216211Y10219683D2*
X2203997Y10225860D1*
X2185747Y10243970D1*
Y10116500D1*
X1175485Y10238360D2*
X1187558Y10250573D1*
X1205808Y10256610D1*
X1230094D1*
X1248344Y10250573D1*
X1260558Y10238360D1*
Y10226287D1*
X1254381Y10214073D1*
X1248344Y10208037D1*
X1236271Y10202000D1*
X1199771Y10189787D1*
X1187558Y10183750D1*
X1181521Y10177573D1*
X1175485Y10165500D1*
Y10147250D1*
X1187558Y10135177D1*
X1205808Y10129000D1*
X1230094D1*
X1248344Y10135177D1*
X1260558Y10147250D1*
X1130092Y10226146D2*
Y10232183D1*
X1124055Y10244396D1*
X1118019Y10250433D1*
X1105805Y10256470D1*
X1081519D1*
X1069446Y10250433D1*
X1063409Y10244396D1*
X1057232Y10232183D1*
Y10220110D1*
X1063409Y10207896D1*
X1075482Y10189787D1*
X1136269Y10129000D1*
X1051196D1*
X3723999Y10224235D2*
Y10133125D1*
X3717963Y10114875D1*
X3705749Y10102802D1*
X3687499Y10096625D1*
X3675426D1*
X3657176Y10102802D1*
X3644963Y10114875D1*
X3638926Y10133125D1*
Y10224235D1*
X3599711Y10199808D2*
X3587497Y10205985D1*
X3569247Y10224095D1*
Y10096625D1*
X3602201Y4977653D2*
Y4886544D1*
X3596164Y4868294D1*
X3583951Y4856221D1*
X3565701Y4850044D1*
X3553628D1*
X3535378Y4856221D1*
X3523164Y4868294D1*
X3517128Y4886544D1*
Y4977653D1*
X3471735Y4947190D2*
Y4953226D1*
X3465699Y4965440D1*
X3459662Y4971476D1*
X3447449Y4977513D1*
X3423162D1*
X3411089Y4971476D1*
X3405053Y4965440D1*
X3398876Y4953226D1*
Y4941153D1*
X3405053Y4928940D1*
X3417126Y4910830D1*
X3477912Y4850044D1*
X3392839D1*
X2204574Y7236300D2*
Y7145190D1*
X2198538Y7126940D1*
X2186324Y7114867D1*
X2168074Y7108690D1*
X2156001D1*
X2137751Y7114867D1*
X2125538Y7126940D1*
X2119501Y7145190D1*
Y7236300D1*
X2007426Y7236160D2*
X2068072D1*
X2074109Y7181550D1*
X2068072Y7187586D1*
X2049822Y7193763D1*
X2031712D1*
X2013462Y7187586D1*
X2001249Y7175513D1*
X1995212Y7157263D1*
Y7145190D1*
X2001249Y7126940D1*
X2013462Y7114727D1*
X2031712Y7108690D1*
X2049822D1*
X2068072Y7114727D1*
X2074109Y7120904D1*
X2080285Y7132977D1*
X3561342Y6509332D2*
Y6418222D1*
X3555306Y6399972D1*
X3543092Y6387899D1*
X3524842Y6381722D1*
X3512769D1*
X3494519Y6387899D1*
X3482306Y6399972D1*
X3476269Y6418222D1*
Y6509332D1*
X3364194Y6491082D2*
X3370231Y6503155D1*
X3388481Y6509191D1*
X3400554D1*
X3418804Y6503155D1*
X3431017Y6484905D1*
X3437054Y6454582D1*
Y6424259D1*
X3431017Y6399972D1*
X3418804Y6387759D1*
X3400554Y6381722D1*
X3394517D1*
X3376408Y6387759D1*
X3364194Y6399972D1*
X3358158Y6418222D1*
Y6424259D1*
X3364194Y6442509D1*
X3376408Y6454582D1*
X3394517Y6460618D1*
X3400554D1*
X3418804Y6454582D1*
X3431017Y6442509D1*
X3437054Y6424259D1*
X2553837Y7262803D2*
X2541764Y7268839D1*
X2529550Y7281053D1*
X2523514Y7293126D1*
Y7317412D1*
X2529550Y7329626D1*
X2541764Y7341699D1*
X2553837Y7347876D1*
X2572087Y7353912D1*
X2602550D1*
X2620660Y7347876D1*
X2632873Y7341699D1*
X2644946Y7329626D1*
X2651123Y7317412D1*
Y7293126D1*
X2644946Y7281053D1*
X2632873Y7268839D1*
X2620660Y7262803D1*
X2547940Y7223587D2*
X2541764Y7211374D1*
X2523654Y7193124D1*
X2651123Y7193123D1*
X2553977Y7147731D2*
X2547940D1*
X2535727Y7141694D1*
X2529690Y7135658D1*
X2523654Y7123444D1*
Y7099158D1*
X2529690Y7087085D1*
X2535727Y7081048D1*
X2547940Y7074871D1*
X2560013D1*
X2572227Y7081048D1*
X2590337Y7093121D1*
X2651123Y7153908D1*
Y7068835D1*
X3218591Y4277472D2*
D100*
Y4403706D1*
X3422767Y4403705D1*
Y4277472D1*
X3315850Y4403705D2*
Y4325989D1*
X3247791Y4078610D2*
X3228250Y4097927D1*
X3218591Y4127127D1*
Y4165985D1*
X3228250Y4195185D1*
X3247791Y4214727D1*
X3267108D1*
X3286650Y4204843D1*
X3296308Y4195185D1*
X3305967Y4175868D1*
X3325508Y4117468D1*
X3335167Y4097927D1*
X3345050Y4088268D1*
X3364367Y4078610D1*
X3393567D1*
X3412884Y4097927D1*
X3422767Y4127127D1*
Y4165985D1*
X3412884Y4195185D1*
X3393567Y4214727D1*
X3325508Y4015865D2*
Y3928265D1*
X3315850Y3899289D1*
X3305967Y3889406D1*
X3286650Y3879748D1*
X3257450D1*
X3238133Y3889406D1*
X3228250Y3899289D1*
X3218591Y3928265D1*
Y4015865D1*
X3422767D1*
X3257674Y3817003D2*
X3247791Y3797461D1*
X3218816Y3768261D1*
X3422767D1*
X3267333Y3695633D2*
X3257674D1*
X3238133Y3685974D1*
X3228474Y3676316D1*
X3218816Y3656774D1*
Y3617916D1*
X3228474Y3598599D1*
X3238133Y3588941D1*
X3257674Y3579058D1*
X3276991D1*
X3296533Y3588941D1*
X3325508Y3608258D1*
X3422767Y3705516D1*
Y3569399D1*
X3218591Y3380420D2*
Y3506654D1*
X3422767D1*
Y3380420D1*
X3315850Y3506654D2*
Y3428937D1*
M02*
