M48
METRIC,0000.00
T01C0.7
T02C0.8
T03C0.9
T04C1.0
T05C1.1
T06C1.2
T07C1.3
T08C1.4
T09C2.0
T10C2.5
T11C3.0
%
T09
X+006150Y+010648
X+002270Y+010414
X+005798Y+001987
X+001444Y+002006
T11
X+006303Y+008426
T05
X+001630Y+009813
X+001930Y+009488
T03
X+003251Y+009444
X+003505Y+009441
X+003754Y+009449
X+004009Y+009446
X+005025Y+001744
X+005277Y+001743
X+004771Y+001744
X+004515Y+001744
X+004268Y+001744
X+004003Y+001744
X+003750Y+001744
X+003501Y+001744
X+002994Y+001742
X+003248Y+001744
X+002740Y+001744
X+002484Y+001744
X+002230Y+001744
X+001975Y+001744
T04
X+002508Y+010636
X+002508Y+010186
X+003158Y+010186
X+003158Y+010636
X+002032Y+010192
X+002032Y+010642
X+001382Y+010642
X+001382Y+010192
T02
X+003620Y+010643
X+003820Y+010643
X+004020Y+010643
T08
X+003410Y+010643
X+004230Y+010643
T02
X+004642Y+007535
X+005720Y+007535
X+004130Y+002873
X+001330Y+002873
X+005712Y+006493
X+004950Y+006493
X+001330Y+005223
X+001330Y+003913
T07
X+005276Y+001484
X+005023Y+001483
X+004769Y+001485
X+004515Y+001485
X+004262Y+001484
X+004007Y+001484
X+003753Y+001484
X+003500Y+001484
X+003246Y+001484
X+002738Y+001484
X+002991Y+001484
X+002482Y+001484
X+002228Y+001485
X+001974Y+001484
X+004012Y+009673
X+003758Y+009673
X+003504Y+009673
X+003250Y+009673
T01
X+004462Y+003221
X+004262Y+003221
X+004062Y+003221
X+003862Y+003221
X+003662Y+003221
X+003462Y+003221
X+003262Y+003221
X+003062Y+003221
X+004462Y+004621
X+004262Y+004621
X+004062Y+004621
X+003862Y+004621
X+003662Y+004621
X+003462Y+004621
X+003262Y+004621
X+003062Y+004621
X+004612Y+003621
X+004612Y+004421
X+004612Y+003421
X+004612Y+004021
X+004612Y+003821
X+004612Y+004221
T06
X+004199Y+009108
X+004199Y+007768
X+001984Y+007758
X+001984Y+008058
X+001984Y+008813
X+001984Y+009113
T03
X+004540Y+009293
X+004794Y+009293
X+005048Y+009293
X+005302Y+009293
X+005556Y+009293
X+005810Y+009293
X+005630Y+005173
X+005630Y+005427
X+005630Y+005665
X+005630Y+005919
T10
X+002941Y+005548
T03
X+005800Y+003323
X+005800Y+003577
X+005800Y+003831
X+005800Y+004085
X+005800Y+004339
X+005800Y+004593
T04
X+005720Y+006763
X+005720Y+007013
X+005720Y+007263
T00
M30
