G04 DipTrace 3.1.0.1*
G04 Верхний.gbr*
%MOMM*%
G04 #@! TF.FileFunction,Copper,L1,Top*
G04 #@! TF.Part,Single*
%ADD26C,1.9*%
%ADD28C,1.7*%
%ADD30C,1.5*%
%ADD37C,1.8*%
%ADD39C,1.6*%
%ADD41C,2.2*%
%ADD45C,1.12366*%
%ADD47C,2.7*%
G04 #@! TA.AperFunction,Conductor*
%ADD13C,0.45*%
%ADD14C,0.8*%
%FSLAX35Y35*%
G04*
G71*
G90*
G75*
G01*
G04 Top_Plane*
%LPD*%
X4949750Y6493373D2*
D14*
X5711750D1*
X4129750Y2873373D2*
D13*
X1329750D1*
Y5223373D2*
Y3913373D1*
X4641750Y7535373D2*
D14*
X5719750D1*
D37*
X4641750D3*
X5719750D3*
X4129750Y2873373D3*
X1329750D3*
X5711750Y6493373D3*
X4949750D3*
X1329750Y5223373D3*
Y3913373D3*
D26*
X1629750Y9813373D3*
X1929750Y9488373D3*
D30*
X3250750Y9444373D3*
X3504750Y9441373D3*
X3753750Y9449373D3*
X4008750Y9446373D3*
D3*
X5024750Y1744373D3*
X5276750Y1743373D3*
X4770750Y1744373D3*
X4514750D3*
X4267750D3*
X4002750D3*
X3749750D3*
X3500750D3*
X2993750Y1742373D3*
X3247750Y1744373D3*
X2739750D3*
X2483750D3*
X2229750D3*
X1974750D3*
D28*
X2508123Y10636123D3*
Y10186123D3*
X3158123D3*
Y10636123D3*
X2031877Y10191623D3*
Y10641623D3*
X1381877D3*
Y10191623D3*
D30*
X3619750Y10643373D3*
X3819750D3*
X4019750D3*
D37*
X3409750D3*
X4229750D3*
D41*
X5275750Y1484373D3*
X5022623Y1483373D3*
X4768500Y1485373D3*
X4514500D3*
X4261500Y1484497D3*
X4006500D3*
X3752623Y1484500D3*
X3499750Y1484123D3*
X3246250D3*
X2737750Y1484250D3*
X2990873Y1484373D3*
X2481873Y1484497D3*
X2228250Y1484747D3*
X1974373Y1484497D3*
X4011750Y9673123D3*
X3757750D3*
X3503750D3*
X3249750D3*
D45*
X4461750Y3221373D3*
X4261750D3*
X4061750D3*
X3861750D3*
X3661750D3*
X3461750D3*
X3261750D3*
X3061750D3*
X4461750Y4621373D3*
X4261750D3*
X4061750D3*
X3861750D3*
X3661750D3*
X3461750D3*
X3261750D3*
X3061750D3*
X4611750Y3621373D3*
Y4421373D3*
Y3421373D3*
Y4021373D3*
Y3821373D3*
Y4221373D3*
D47*
X4198750Y9108373D3*
Y7768373D3*
X1983750Y7758373D3*
Y8058373D3*
Y8813373D3*
Y9113373D3*
D30*
X4539750Y9293373D3*
X4793750D3*
X5047750D3*
X5301750D3*
X5555750D3*
X5809750D3*
X5629750Y5173373D3*
Y5427373D3*
Y5665497D3*
Y5919497D3*
X5799750Y3323373D3*
Y3577373D3*
Y3831373D3*
Y4085373D3*
Y4339373D3*
Y4593373D3*
D39*
X5719750Y6763373D3*
Y7013373D3*
Y7263373D3*
M02*
